<mxfile host="Electron" agent="Mozilla/5.0 (Windows NT 10.0; Win64; x64) AppleWebKit/537.36 (KHTML, like Gecko) draw.io/26.0.4 Chrome/128.0.6613.186 Electron/32.2.5 Safari/537.36" version="26.0.4">
  <diagram name="Страница — 1" id="O7UXKmrHhJbtFQHpw8mE">
    <mxGraphModel dx="4037" dy="1688" grid="1" gridSize="10" guides="1" tooltips="1" connect="1" arrows="1" fold="1" page="1" pageScale="1" pageWidth="1169" pageHeight="827" math="0" shadow="0">
      <root>
        <mxCell id="0" />
        <mxCell id="1" parent="0" />
        <mxCell id="n6vh8ZUvpWAjUFo_drXO-31" style="edgeStyle=orthogonalEdgeStyle;rounded=0;orthogonalLoop=1;jettySize=auto;html=1;entryX=0;entryY=0.5;entryDx=0;entryDy=0;dashed=1;strokeColor=default;align=center;verticalAlign=middle;fontFamily=Helvetica;fontSize=11;fontColor=default;labelBackgroundColor=default;endArrow=open;endSize=12;" parent="1" source="n6vh8ZUvpWAjUFo_drXO-29" target="L1aKWbRL0jlR046Id958-26" edge="1">
          <mxGeometry relative="1" as="geometry" />
        </mxCell>
        <mxCell id="n6vh8ZUvpWAjUFo_drXO-32" style="edgeStyle=orthogonalEdgeStyle;rounded=0;orthogonalLoop=1;jettySize=auto;html=1;dashed=1;strokeColor=default;align=center;verticalAlign=middle;fontFamily=Helvetica;fontSize=11;fontColor=default;labelBackgroundColor=default;endArrow=open;endSize=12;" parent="1" source="n6vh8ZUvpWAjUFo_drXO-29" target="L1aKWbRL0jlR046Id958-28" edge="1">
          <mxGeometry relative="1" as="geometry">
            <Array as="points">
              <mxPoint x="670" y="2015" />
              <mxPoint x="670" y="1885" />
            </Array>
          </mxGeometry>
        </mxCell>
        <mxCell id="n6vh8ZUvpWAjUFo_drXO-33" style="edgeStyle=orthogonalEdgeStyle;rounded=0;orthogonalLoop=1;jettySize=auto;html=1;entryX=0;entryY=0.5;entryDx=0;entryDy=0;dashed=1;strokeColor=default;align=center;verticalAlign=middle;fontFamily=Helvetica;fontSize=11;fontColor=default;labelBackgroundColor=default;endArrow=open;endSize=12;" parent="1" source="n6vh8ZUvpWAjUFo_drXO-29" target="L1aKWbRL0jlR046Id958-50" edge="1">
          <mxGeometry relative="1" as="geometry">
            <Array as="points">
              <mxPoint x="670" y="2015" />
              <mxPoint x="670" y="2145" />
            </Array>
          </mxGeometry>
        </mxCell>
        <mxCell id="L1aKWbRL0jlR046Id958-48" value="&lt;p style=&quot;margin:0px;margin-top:6px;text-align:center;&quot;&gt;&lt;b&gt;MCF Infra&lt;/b&gt;&lt;/p&gt;&lt;hr size=&quot;1&quot; style=&quot;border-style:solid;&quot;&gt;&lt;p style=&quot;margin:0px;margin-left:8px;&quot;&gt;&lt;br&gt;&lt;/p&gt;" style="align=left;overflow=fill;html=1;dropTarget=0;whiteSpace=wrap;fillColor=default;" parent="1" vertex="1">
          <mxGeometry x="-680" y="160" width="1940" height="2160" as="geometry" />
        </mxCell>
        <mxCell id="L1aKWbRL0jlR046Id958-49" value="" style="shape=component;jettyWidth=8;jettyHeight=4;" parent="L1aKWbRL0jlR046Id958-48" vertex="1">
          <mxGeometry x="1" width="20" height="20" relative="1" as="geometry">
            <mxPoint x="-24" y="4" as="offset" />
          </mxGeometry>
        </mxCell>
        <mxCell id="n6vh8ZUvpWAjUFo_drXO-29" value="&lt;p style=&quot;margin:0px;margin-top:6px;text-align:center;&quot;&gt;&lt;b&gt;Исполнение заказов&lt;/b&gt;&lt;/p&gt;&lt;hr size=&quot;1&quot; style=&quot;border-style:solid;&quot;&gt;&lt;p style=&quot;margin:0px;margin-left:8px;&quot;&gt;&lt;br&gt;&lt;/p&gt;" style="align=left;overflow=fill;html=1;dropTarget=0;whiteSpace=wrap;" parent="1" vertex="1">
          <mxGeometry x="80" y="1840" width="540" height="350" as="geometry" />
        </mxCell>
        <mxCell id="n6vh8ZUvpWAjUFo_drXO-30" value="" style="shape=component;jettyWidth=8;jettyHeight=4;" parent="n6vh8ZUvpWAjUFo_drXO-29" vertex="1">
          <mxGeometry x="1" width="20" height="20" relative="1" as="geometry">
            <mxPoint x="-24" y="4" as="offset" />
          </mxGeometry>
        </mxCell>
        <mxCell id="L1aKWbRL0jlR046Id958-26" value="&lt;b&gt;Relational Database&lt;/b&gt;" style="html=1;dropTarget=0;whiteSpace=wrap;" parent="1" vertex="1">
          <mxGeometry x="720" y="1970" width="180" height="90" as="geometry" />
        </mxCell>
        <mxCell id="L1aKWbRL0jlR046Id958-27" value="" style="shape=module;jettyWidth=8;jettyHeight=4;" parent="L1aKWbRL0jlR046Id958-26" vertex="1">
          <mxGeometry x="1" width="20" height="20" relative="1" as="geometry">
            <mxPoint x="-27" y="7" as="offset" />
          </mxGeometry>
        </mxCell>
        <mxCell id="L1aKWbRL0jlR046Id958-28" value="&lt;b&gt;SMTP Server&lt;/b&gt;" style="html=1;dropTarget=0;whiteSpace=wrap;" parent="1" vertex="1">
          <mxGeometry x="720" y="1840" width="180" height="90" as="geometry" />
        </mxCell>
        <mxCell id="L1aKWbRL0jlR046Id958-29" value="" style="shape=module;jettyWidth=8;jettyHeight=4;" parent="L1aKWbRL0jlR046Id958-28" vertex="1">
          <mxGeometry x="1" width="20" height="20" relative="1" as="geometry">
            <mxPoint x="-27" y="7" as="offset" />
          </mxGeometry>
        </mxCell>
        <mxCell id="LYflKzHuiO3MuXT4zeJ_-65" style="edgeStyle=orthogonalEdgeStyle;rounded=0;orthogonalLoop=1;jettySize=auto;html=1;entryX=0;entryY=0.5;entryDx=0;entryDy=0;dashed=1;strokeColor=default;align=center;verticalAlign=middle;fontFamily=Helvetica;fontSize=11;fontColor=default;labelBackgroundColor=default;endArrow=open;endSize=12;" edge="1" parent="1" source="L1aKWbRL0jlR046Id958-30" target="GlvITaIUweZwBL05TDau-1">
          <mxGeometry relative="1" as="geometry" />
        </mxCell>
        <mxCell id="L1aKWbRL0jlR046Id958-30" value="&lt;b&gt;Reverse Proxy Server&lt;/b&gt;" style="html=1;dropTarget=0;whiteSpace=wrap;" parent="1" vertex="1">
          <mxGeometry x="-600" y="1225" width="180" height="90" as="geometry" />
        </mxCell>
        <mxCell id="L1aKWbRL0jlR046Id958-31" value="" style="shape=module;jettyWidth=8;jettyHeight=4;" parent="L1aKWbRL0jlR046Id958-30" vertex="1">
          <mxGeometry x="1" width="20" height="20" relative="1" as="geometry">
            <mxPoint x="-27" y="7" as="offset" />
          </mxGeometry>
        </mxCell>
        <mxCell id="L1aKWbRL0jlR046Id958-38" style="edgeStyle=orthogonalEdgeStyle;rounded=0;orthogonalLoop=1;jettySize=auto;html=1;entryX=0;entryY=0.5;entryDx=0;entryDy=0;dashed=1;strokeColor=default;align=center;verticalAlign=middle;fontFamily=Helvetica;fontSize=11;fontColor=default;labelBackgroundColor=default;endArrow=open;endSize=12;" parent="1" source="L1aKWbRL0jlR046Id958-32" target="L1aKWbRL0jlR046Id958-30" edge="1">
          <mxGeometry relative="1" as="geometry" />
        </mxCell>
        <mxCell id="L1aKWbRL0jlR046Id958-32" value="&lt;b&gt;Web Browser&lt;/b&gt;" style="html=1;dropTarget=0;whiteSpace=wrap;" parent="1" vertex="1">
          <mxGeometry x="-1040" y="1225" width="180" height="90" as="geometry" />
        </mxCell>
        <mxCell id="L1aKWbRL0jlR046Id958-33" value="" style="shape=module;jettyWidth=8;jettyHeight=4;" parent="L1aKWbRL0jlR046Id958-32" vertex="1">
          <mxGeometry x="1" width="20" height="20" relative="1" as="geometry">
            <mxPoint x="-27" y="7" as="offset" />
          </mxGeometry>
        </mxCell>
        <mxCell id="L1aKWbRL0jlR046Id958-45" value="&lt;b&gt;External Payment Service&lt;/b&gt;" style="html=1;dropTarget=0;whiteSpace=wrap;" parent="1" vertex="1">
          <mxGeometry x="260" y="2360" width="180" height="90" as="geometry" />
        </mxCell>
        <mxCell id="L1aKWbRL0jlR046Id958-46" value="" style="shape=module;jettyWidth=8;jettyHeight=4;" parent="L1aKWbRL0jlR046Id958-45" vertex="1">
          <mxGeometry x="1" width="20" height="20" relative="1" as="geometry">
            <mxPoint x="-27" y="7" as="offset" />
          </mxGeometry>
        </mxCell>
        <mxCell id="L1aKWbRL0jlR046Id958-50" value="&lt;b&gt;Object Storage&lt;/b&gt;" style="html=1;dropTarget=0;whiteSpace=wrap;" parent="1" vertex="1">
          <mxGeometry x="720" y="2100" width="180" height="90" as="geometry" />
        </mxCell>
        <mxCell id="L1aKWbRL0jlR046Id958-51" value="" style="shape=module;jettyWidth=8;jettyHeight=4;" parent="L1aKWbRL0jlR046Id958-50" vertex="1">
          <mxGeometry x="1" width="20" height="20" relative="1" as="geometry">
            <mxPoint x="-27" y="7" as="offset" />
          </mxGeometry>
        </mxCell>
        <mxCell id="LYflKzHuiO3MuXT4zeJ_-59" style="edgeStyle=orthogonalEdgeStyle;rounded=0;orthogonalLoop=1;jettySize=auto;html=1;dashed=1;strokeColor=default;align=center;verticalAlign=middle;fontFamily=Helvetica;fontSize=11;fontColor=default;labelBackgroundColor=default;endArrow=open;endSize=12;" edge="1" parent="1" source="GlvITaIUweZwBL05TDau-1" target="uvWE7Oe1ghTMDL82STBi-1">
          <mxGeometry relative="1" as="geometry">
            <Array as="points">
              <mxPoint x="180" y="1270" />
              <mxPoint x="180" y="365" />
            </Array>
          </mxGeometry>
        </mxCell>
        <mxCell id="LYflKzHuiO3MuXT4zeJ_-60" style="edgeStyle=orthogonalEdgeStyle;rounded=0;orthogonalLoop=1;jettySize=auto;html=1;dashed=1;strokeColor=default;align=center;verticalAlign=middle;fontFamily=Helvetica;fontSize=11;fontColor=default;labelBackgroundColor=default;endArrow=open;endSize=12;" edge="1" parent="1" source="GlvITaIUweZwBL05TDau-1" target="uvWE7Oe1ghTMDL82STBi-7">
          <mxGeometry relative="1" as="geometry">
            <Array as="points">
              <mxPoint x="180" y="1270" />
              <mxPoint x="180" y="685" />
            </Array>
          </mxGeometry>
        </mxCell>
        <mxCell id="LYflKzHuiO3MuXT4zeJ_-61" style="edgeStyle=orthogonalEdgeStyle;rounded=0;orthogonalLoop=1;jettySize=auto;html=1;dashed=1;strokeColor=default;align=center;verticalAlign=middle;fontFamily=Helvetica;fontSize=11;fontColor=default;labelBackgroundColor=default;endArrow=open;endSize=12;" edge="1" parent="1" source="GlvITaIUweZwBL05TDau-1" target="uvWE7Oe1ghTMDL82STBi-12">
          <mxGeometry relative="1" as="geometry">
            <Array as="points">
              <mxPoint x="180" y="1270" />
              <mxPoint x="180" y="1005" />
            </Array>
          </mxGeometry>
        </mxCell>
        <mxCell id="LYflKzHuiO3MuXT4zeJ_-62" style="edgeStyle=orthogonalEdgeStyle;rounded=0;orthogonalLoop=1;jettySize=auto;html=1;entryX=0;entryY=0.5;entryDx=0;entryDy=0;dashed=1;strokeColor=default;align=center;verticalAlign=middle;fontFamily=Helvetica;fontSize=11;fontColor=default;labelBackgroundColor=default;endArrow=open;endSize=12;" edge="1" parent="1" source="GlvITaIUweZwBL05TDau-1" target="n6vh8ZUvpWAjUFo_drXO-1">
          <mxGeometry relative="1" as="geometry">
            <Array as="points">
              <mxPoint x="180" y="1270" />
              <mxPoint x="180" y="1325" />
            </Array>
          </mxGeometry>
        </mxCell>
        <mxCell id="LYflKzHuiO3MuXT4zeJ_-63" style="edgeStyle=orthogonalEdgeStyle;rounded=0;orthogonalLoop=1;jettySize=auto;html=1;entryX=0;entryY=0.5;entryDx=0;entryDy=0;dashed=1;strokeColor=default;align=center;verticalAlign=middle;fontFamily=Helvetica;fontSize=11;fontColor=default;labelBackgroundColor=default;endArrow=open;endSize=12;" edge="1" parent="1" source="GlvITaIUweZwBL05TDau-1" target="n6vh8ZUvpWAjUFo_drXO-6">
          <mxGeometry relative="1" as="geometry">
            <Array as="points">
              <mxPoint x="180" y="1270" />
              <mxPoint x="180" y="1645" />
            </Array>
          </mxGeometry>
        </mxCell>
        <mxCell id="LYflKzHuiO3MuXT4zeJ_-64" style="edgeStyle=orthogonalEdgeStyle;rounded=0;orthogonalLoop=1;jettySize=auto;html=1;dashed=1;strokeColor=default;align=center;verticalAlign=middle;fontFamily=Helvetica;fontSize=11;fontColor=default;labelBackgroundColor=default;endArrow=open;endSize=12;exitX=1;exitY=0.75;exitDx=0;exitDy=0;" edge="1" parent="1" source="GlvITaIUweZwBL05TDau-1" target="n6vh8ZUvpWAjUFo_drXO-29">
          <mxGeometry relative="1" as="geometry" />
        </mxCell>
        <mxCell id="GlvITaIUweZwBL05TDau-1" value="&lt;b&gt;API Gateway&lt;/b&gt;" style="html=1;dropTarget=0;whiteSpace=wrap;" parent="1" vertex="1">
          <mxGeometry x="-280" y="270" width="180" height="2000" as="geometry" />
        </mxCell>
        <mxCell id="GlvITaIUweZwBL05TDau-2" value="" style="shape=module;jettyWidth=8;jettyHeight=4;" parent="GlvITaIUweZwBL05TDau-1" vertex="1">
          <mxGeometry x="1" width="20" height="20" relative="1" as="geometry">
            <mxPoint x="-27" y="7" as="offset" />
          </mxGeometry>
        </mxCell>
        <mxCell id="uvWE7Oe1ghTMDL82STBi-5" style="edgeStyle=orthogonalEdgeStyle;rounded=0;orthogonalLoop=1;jettySize=auto;html=1;entryX=0;entryY=0.5;entryDx=0;entryDy=0;dashed=1;strokeColor=default;align=center;verticalAlign=middle;fontFamily=Helvetica;fontSize=11;fontColor=default;labelBackgroundColor=default;endArrow=open;endSize=12;exitX=1;exitY=0.5;exitDx=0;exitDy=0;" parent="1" source="uvWE7Oe1ghTMDL82STBi-1" target="LYflKzHuiO3MuXT4zeJ_-6" edge="1">
          <mxGeometry relative="1" as="geometry" />
        </mxCell>
        <mxCell id="LYflKzHuiO3MuXT4zeJ_-8" style="edgeStyle=orthogonalEdgeStyle;rounded=0;orthogonalLoop=1;jettySize=auto;html=1;entryX=0;entryY=0.5;entryDx=0;entryDy=0;dashed=1;strokeColor=default;align=center;verticalAlign=middle;fontFamily=Helvetica;fontSize=11;fontColor=default;labelBackgroundColor=default;endArrow=open;endSize=12;" edge="1" parent="1" source="uvWE7Oe1ghTMDL82STBi-1" target="uvWE7Oe1ghTMDL82STBi-3">
          <mxGeometry relative="1" as="geometry" />
        </mxCell>
        <mxCell id="LYflKzHuiO3MuXT4zeJ_-43" style="edgeStyle=orthogonalEdgeStyle;rounded=0;orthogonalLoop=1;jettySize=auto;html=1;dashed=1;strokeColor=default;align=center;verticalAlign=middle;fontFamily=Helvetica;fontSize=11;fontColor=default;labelBackgroundColor=default;endArrow=open;endSize=12;" edge="1" parent="1" source="uvWE7Oe1ghTMDL82STBi-1" target="LYflKzHuiO3MuXT4zeJ_-42">
          <mxGeometry relative="1" as="geometry" />
        </mxCell>
        <mxCell id="uvWE7Oe1ghTMDL82STBi-1" value="&lt;b&gt;Регистрация новых исполнителей в системе&lt;/b&gt;" style="html=1;dropTarget=0;whiteSpace=wrap;" parent="1" vertex="1">
          <mxGeometry x="480" y="320" width="180" height="90" as="geometry" />
        </mxCell>
        <mxCell id="uvWE7Oe1ghTMDL82STBi-2" value="" style="shape=module;jettyWidth=8;jettyHeight=4;" parent="uvWE7Oe1ghTMDL82STBi-1" vertex="1">
          <mxGeometry x="1" width="20" height="20" relative="1" as="geometry">
            <mxPoint x="-27" y="7" as="offset" />
          </mxGeometry>
        </mxCell>
        <mxCell id="uvWE7Oe1ghTMDL82STBi-3" value="&lt;b&gt;Relational Database&lt;/b&gt;" style="html=1;dropTarget=0;whiteSpace=wrap;" parent="1" vertex="1">
          <mxGeometry x="720" y="400" width="180" height="90" as="geometry" />
        </mxCell>
        <mxCell id="uvWE7Oe1ghTMDL82STBi-4" value="" style="shape=module;jettyWidth=8;jettyHeight=4;" parent="uvWE7Oe1ghTMDL82STBi-3" vertex="1">
          <mxGeometry x="1" width="20" height="20" relative="1" as="geometry">
            <mxPoint x="-27" y="7" as="offset" />
          </mxGeometry>
        </mxCell>
        <mxCell id="LYflKzHuiO3MuXT4zeJ_-27" style="edgeStyle=orthogonalEdgeStyle;rounded=0;orthogonalLoop=1;jettySize=auto;html=1;entryX=0;entryY=0.5;entryDx=0;entryDy=0;dashed=1;strokeColor=default;align=center;verticalAlign=middle;fontFamily=Helvetica;fontSize=11;fontColor=default;labelBackgroundColor=default;endArrow=open;endSize=12;" edge="1" parent="1" source="uvWE7Oe1ghTMDL82STBi-7" target="LYflKzHuiO3MuXT4zeJ_-13">
          <mxGeometry relative="1" as="geometry" />
        </mxCell>
        <mxCell id="LYflKzHuiO3MuXT4zeJ_-28" style="edgeStyle=orthogonalEdgeStyle;rounded=0;orthogonalLoop=1;jettySize=auto;html=1;entryX=0;entryY=0.5;entryDx=0;entryDy=0;dashed=1;strokeColor=default;align=center;verticalAlign=middle;fontFamily=Helvetica;fontSize=11;fontColor=default;labelBackgroundColor=default;endArrow=open;endSize=12;" edge="1" parent="1" source="uvWE7Oe1ghTMDL82STBi-7" target="LYflKzHuiO3MuXT4zeJ_-11">
          <mxGeometry relative="1" as="geometry" />
        </mxCell>
        <mxCell id="uvWE7Oe1ghTMDL82STBi-7" value="&lt;b&gt;Система сборки&lt;/b&gt;&lt;div&gt;&lt;b&gt;расходников&lt;/b&gt;&lt;/div&gt;" style="html=1;dropTarget=0;whiteSpace=wrap;" parent="1" vertex="1">
          <mxGeometry x="480" y="640" width="180" height="90" as="geometry" />
        </mxCell>
        <mxCell id="uvWE7Oe1ghTMDL82STBi-8" value="" style="shape=module;jettyWidth=8;jettyHeight=4;" parent="uvWE7Oe1ghTMDL82STBi-7" vertex="1">
          <mxGeometry x="1" width="20" height="20" relative="1" as="geometry">
            <mxPoint x="-27" y="7" as="offset" />
          </mxGeometry>
        </mxCell>
        <mxCell id="LYflKzHuiO3MuXT4zeJ_-29" style="edgeStyle=orthogonalEdgeStyle;rounded=0;orthogonalLoop=1;jettySize=auto;html=1;entryX=0;entryY=0.5;entryDx=0;entryDy=0;dashed=1;strokeColor=default;align=center;verticalAlign=middle;fontFamily=Helvetica;fontSize=11;fontColor=default;labelBackgroundColor=default;endArrow=open;endSize=12;" edge="1" parent="1" source="uvWE7Oe1ghTMDL82STBi-12" target="LYflKzHuiO3MuXT4zeJ_-17">
          <mxGeometry relative="1" as="geometry" />
        </mxCell>
        <mxCell id="LYflKzHuiO3MuXT4zeJ_-30" style="edgeStyle=orthogonalEdgeStyle;rounded=0;orthogonalLoop=1;jettySize=auto;html=1;entryX=0;entryY=0.5;entryDx=0;entryDy=0;dashed=1;strokeColor=default;align=center;verticalAlign=middle;fontFamily=Helvetica;fontSize=11;fontColor=default;labelBackgroundColor=default;endArrow=open;endSize=12;" edge="1" parent="1" source="uvWE7Oe1ghTMDL82STBi-12" target="LYflKzHuiO3MuXT4zeJ_-15">
          <mxGeometry relative="1" as="geometry" />
        </mxCell>
        <mxCell id="uvWE7Oe1ghTMDL82STBi-12" value="&lt;b&gt;Изучение качества работы&lt;/b&gt;" style="html=1;dropTarget=0;whiteSpace=wrap;" parent="1" vertex="1">
          <mxGeometry x="480" y="960" width="180" height="90" as="geometry" />
        </mxCell>
        <mxCell id="uvWE7Oe1ghTMDL82STBi-13" value="" style="shape=module;jettyWidth=8;jettyHeight=4;" parent="uvWE7Oe1ghTMDL82STBi-12" vertex="1">
          <mxGeometry x="1" width="20" height="20" relative="1" as="geometry">
            <mxPoint x="-27" y="7" as="offset" />
          </mxGeometry>
        </mxCell>
        <mxCell id="LYflKzHuiO3MuXT4zeJ_-31" style="edgeStyle=orthogonalEdgeStyle;rounded=0;orthogonalLoop=1;jettySize=auto;html=1;entryX=0;entryY=0.5;entryDx=0;entryDy=0;dashed=1;strokeColor=default;align=center;verticalAlign=middle;fontFamily=Helvetica;fontSize=11;fontColor=default;labelBackgroundColor=default;endArrow=open;endSize=12;" edge="1" parent="1" source="n6vh8ZUvpWAjUFo_drXO-1" target="LYflKzHuiO3MuXT4zeJ_-21">
          <mxGeometry relative="1" as="geometry" />
        </mxCell>
        <mxCell id="LYflKzHuiO3MuXT4zeJ_-32" style="edgeStyle=orthogonalEdgeStyle;rounded=0;orthogonalLoop=1;jettySize=auto;html=1;entryX=0;entryY=0.5;entryDx=0;entryDy=0;dashed=1;strokeColor=default;align=center;verticalAlign=middle;fontFamily=Helvetica;fontSize=11;fontColor=default;labelBackgroundColor=default;endArrow=open;endSize=12;" edge="1" parent="1" source="n6vh8ZUvpWAjUFo_drXO-1" target="LYflKzHuiO3MuXT4zeJ_-19">
          <mxGeometry relative="1" as="geometry" />
        </mxCell>
        <mxCell id="n6vh8ZUvpWAjUFo_drXO-1" value="&lt;b&gt;Повышение мотивации менеджеров&lt;/b&gt;" style="html=1;dropTarget=0;whiteSpace=wrap;" parent="1" vertex="1">
          <mxGeometry x="480" y="1280" width="180" height="90" as="geometry" />
        </mxCell>
        <mxCell id="n6vh8ZUvpWAjUFo_drXO-2" value="" style="shape=module;jettyWidth=8;jettyHeight=4;" parent="n6vh8ZUvpWAjUFo_drXO-1" vertex="1">
          <mxGeometry x="1" width="20" height="20" relative="1" as="geometry">
            <mxPoint x="-27" y="7" as="offset" />
          </mxGeometry>
        </mxCell>
        <mxCell id="LYflKzHuiO3MuXT4zeJ_-33" style="edgeStyle=orthogonalEdgeStyle;rounded=0;orthogonalLoop=1;jettySize=auto;html=1;entryX=0;entryY=0.5;entryDx=0;entryDy=0;dashed=1;strokeColor=default;align=center;verticalAlign=middle;fontFamily=Helvetica;fontSize=11;fontColor=default;labelBackgroundColor=default;endArrow=open;endSize=12;" edge="1" parent="1" source="n6vh8ZUvpWAjUFo_drXO-6" target="LYflKzHuiO3MuXT4zeJ_-25">
          <mxGeometry relative="1" as="geometry" />
        </mxCell>
        <mxCell id="LYflKzHuiO3MuXT4zeJ_-34" style="edgeStyle=orthogonalEdgeStyle;rounded=0;orthogonalLoop=1;jettySize=auto;html=1;entryX=0;entryY=0.5;entryDx=0;entryDy=0;dashed=1;strokeColor=default;align=center;verticalAlign=middle;fontFamily=Helvetica;fontSize=11;fontColor=default;labelBackgroundColor=default;endArrow=open;endSize=12;" edge="1" parent="1" source="n6vh8ZUvpWAjUFo_drXO-6" target="LYflKzHuiO3MuXT4zeJ_-23">
          <mxGeometry relative="1" as="geometry" />
        </mxCell>
        <mxCell id="n6vh8ZUvpWAjUFo_drXO-6" value="&lt;b&gt;Матчинг воркеров под услугу&lt;/b&gt;" style="html=1;dropTarget=0;whiteSpace=wrap;" parent="1" vertex="1">
          <mxGeometry x="480" y="1600" width="180" height="90" as="geometry" />
        </mxCell>
        <mxCell id="n6vh8ZUvpWAjUFo_drXO-7" value="" style="shape=module;jettyWidth=8;jettyHeight=4;" parent="n6vh8ZUvpWAjUFo_drXO-6" vertex="1">
          <mxGeometry x="1" width="20" height="20" relative="1" as="geometry">
            <mxPoint x="-27" y="7" as="offset" />
          </mxGeometry>
        </mxCell>
        <mxCell id="n6vh8ZUvpWAjUFo_drXO-15" value="&lt;b&gt;Message Broker&lt;/b&gt;" style="html=1;dropTarget=0;whiteSpace=wrap;" parent="1" vertex="1">
          <mxGeometry x="1000" y="260" width="180" height="2020" as="geometry" />
        </mxCell>
        <mxCell id="n6vh8ZUvpWAjUFo_drXO-16" value="" style="shape=module;jettyWidth=8;jettyHeight=4;" parent="n6vh8ZUvpWAjUFo_drXO-15" vertex="1">
          <mxGeometry x="1" width="20" height="20" relative="1" as="geometry">
            <mxPoint x="-27" y="7" as="offset" />
          </mxGeometry>
        </mxCell>
        <mxCell id="n6vh8ZUvpWAjUFo_drXO-25" style="edgeStyle=orthogonalEdgeStyle;rounded=0;orthogonalLoop=1;jettySize=auto;html=1;dashed=1;strokeColor=default;align=center;verticalAlign=middle;fontFamily=Helvetica;fontSize=11;fontColor=default;labelBackgroundColor=default;endArrow=open;endSize=12;" parent="1" source="n6vh8ZUvpWAjUFo_drXO-17" target="n6vh8ZUvpWAjUFo_drXO-21" edge="1">
          <mxGeometry relative="1" as="geometry" />
        </mxCell>
        <mxCell id="n6vh8ZUvpWAjUFo_drXO-17" value="&lt;b&gt;Обработка заказов&lt;/b&gt;" style="html=1;dropTarget=0;whiteSpace=wrap;" parent="1" vertex="1">
          <mxGeometry x="120" y="1900" width="180" height="90" as="geometry" />
        </mxCell>
        <mxCell id="n6vh8ZUvpWAjUFo_drXO-18" value="" style="shape=module;jettyWidth=8;jettyHeight=4;" parent="n6vh8ZUvpWAjUFo_drXO-17" vertex="1">
          <mxGeometry x="1" width="20" height="20" relative="1" as="geometry">
            <mxPoint x="-27" y="7" as="offset" />
          </mxGeometry>
        </mxCell>
        <mxCell id="n6vh8ZUvpWAjUFo_drXO-26" style="edgeStyle=orthogonalEdgeStyle;rounded=0;orthogonalLoop=1;jettySize=auto;html=1;dashed=1;strokeColor=default;align=center;verticalAlign=middle;fontFamily=Helvetica;fontSize=11;fontColor=default;labelBackgroundColor=default;endArrow=open;endSize=12;" parent="1" source="n6vh8ZUvpWAjUFo_drXO-19" edge="1">
          <mxGeometry relative="1" as="geometry">
            <mxPoint x="210" y="1990" as="targetPoint" />
          </mxGeometry>
        </mxCell>
        <mxCell id="n6vh8ZUvpWAjUFo_drXO-34" style="edgeStyle=orthogonalEdgeStyle;rounded=0;orthogonalLoop=1;jettySize=auto;html=1;entryX=0.5;entryY=0;entryDx=0;entryDy=0;dashed=1;strokeColor=default;align=center;verticalAlign=middle;fontFamily=Helvetica;fontSize=11;fontColor=default;labelBackgroundColor=default;endArrow=open;endSize=12;" parent="1" source="n6vh8ZUvpWAjUFo_drXO-19" target="L1aKWbRL0jlR046Id958-45" edge="1">
          <mxGeometry relative="1" as="geometry">
            <Array as="points">
              <mxPoint x="210" y="2240" />
              <mxPoint x="350" y="2240" />
            </Array>
          </mxGeometry>
        </mxCell>
        <mxCell id="n6vh8ZUvpWAjUFo_drXO-19" value="&lt;b&gt;Начисление средств исполнителям&lt;/b&gt;" style="html=1;dropTarget=0;whiteSpace=wrap;" parent="1" vertex="1">
          <mxGeometry x="120" y="2060" width="180" height="90" as="geometry" />
        </mxCell>
        <mxCell id="n6vh8ZUvpWAjUFo_drXO-20" value="" style="shape=module;jettyWidth=8;jettyHeight=4;" parent="n6vh8ZUvpWAjUFo_drXO-19" vertex="1">
          <mxGeometry x="1" width="20" height="20" relative="1" as="geometry">
            <mxPoint x="-27" y="7" as="offset" />
          </mxGeometry>
        </mxCell>
        <mxCell id="n6vh8ZUvpWAjUFo_drXO-21" value="&lt;b&gt;Добавление новых клиентов&lt;/b&gt;" style="html=1;dropTarget=0;whiteSpace=wrap;" parent="1" vertex="1">
          <mxGeometry x="400" y="1900" width="180" height="90" as="geometry" />
        </mxCell>
        <mxCell id="n6vh8ZUvpWAjUFo_drXO-22" value="" style="shape=module;jettyWidth=8;jettyHeight=4;" parent="n6vh8ZUvpWAjUFo_drXO-21" vertex="1">
          <mxGeometry x="1" width="20" height="20" relative="1" as="geometry">
            <mxPoint x="-27" y="7" as="offset" />
          </mxGeometry>
        </mxCell>
        <mxCell id="n6vh8ZUvpWAjUFo_drXO-27" style="edgeStyle=orthogonalEdgeStyle;rounded=0;orthogonalLoop=1;jettySize=auto;html=1;entryX=0.75;entryY=1;entryDx=0;entryDy=0;dashed=1;strokeColor=default;align=center;verticalAlign=middle;fontFamily=Helvetica;fontSize=11;fontColor=default;labelBackgroundColor=default;endArrow=open;endSize=12;exitX=0.25;exitY=0;exitDx=0;exitDy=0;" parent="1" source="n6vh8ZUvpWAjUFo_drXO-23" target="n6vh8ZUvpWAjUFo_drXO-17" edge="1">
          <mxGeometry relative="1" as="geometry">
            <Array as="points">
              <mxPoint x="445" y="2020" />
              <mxPoint x="255" y="2020" />
            </Array>
          </mxGeometry>
        </mxCell>
        <mxCell id="n6vh8ZUvpWAjUFo_drXO-28" style="edgeStyle=orthogonalEdgeStyle;rounded=0;orthogonalLoop=1;jettySize=auto;html=1;entryX=0.5;entryY=1;entryDx=0;entryDy=0;dashed=1;strokeColor=default;align=center;verticalAlign=middle;fontFamily=Helvetica;fontSize=11;fontColor=default;labelBackgroundColor=default;endArrow=open;endSize=12;" parent="1" source="n6vh8ZUvpWAjUFo_drXO-23" target="n6vh8ZUvpWAjUFo_drXO-21" edge="1">
          <mxGeometry relative="1" as="geometry" />
        </mxCell>
        <mxCell id="n6vh8ZUvpWAjUFo_drXO-35" style="edgeStyle=orthogonalEdgeStyle;rounded=0;orthogonalLoop=1;jettySize=auto;html=1;entryX=0.5;entryY=0;entryDx=0;entryDy=0;dashed=1;strokeColor=default;align=center;verticalAlign=middle;fontFamily=Helvetica;fontSize=11;fontColor=default;labelBackgroundColor=default;endArrow=open;endSize=12;" parent="1" source="n6vh8ZUvpWAjUFo_drXO-23" target="L1aKWbRL0jlR046Id958-45" edge="1">
          <mxGeometry relative="1" as="geometry">
            <Array as="points">
              <mxPoint x="490" y="2240" />
              <mxPoint x="350" y="2240" />
            </Array>
          </mxGeometry>
        </mxCell>
        <mxCell id="n6vh8ZUvpWAjUFo_drXO-23" value="&lt;b&gt;Списание средств у клиентов&lt;/b&gt;" style="html=1;dropTarget=0;whiteSpace=wrap;" parent="1" vertex="1">
          <mxGeometry x="400" y="2060" width="180" height="90" as="geometry" />
        </mxCell>
        <mxCell id="n6vh8ZUvpWAjUFo_drXO-24" value="" style="shape=module;jettyWidth=8;jettyHeight=4;" parent="n6vh8ZUvpWAjUFo_drXO-23" vertex="1">
          <mxGeometry x="1" width="20" height="20" relative="1" as="geometry">
            <mxPoint x="-27" y="7" as="offset" />
          </mxGeometry>
        </mxCell>
        <mxCell id="LYflKzHuiO3MuXT4zeJ_-6" value="&lt;b&gt;SMTP Server&lt;/b&gt;" style="html=1;dropTarget=0;whiteSpace=wrap;" vertex="1" parent="1">
          <mxGeometry x="720" y="240" width="180" height="90" as="geometry" />
        </mxCell>
        <mxCell id="LYflKzHuiO3MuXT4zeJ_-7" value="" style="shape=module;jettyWidth=8;jettyHeight=4;" vertex="1" parent="LYflKzHuiO3MuXT4zeJ_-6">
          <mxGeometry x="1" width="20" height="20" relative="1" as="geometry">
            <mxPoint x="-27" y="7" as="offset" />
          </mxGeometry>
        </mxCell>
        <mxCell id="LYflKzHuiO3MuXT4zeJ_-11" value="&lt;b&gt;Relational Database&lt;/b&gt;" style="html=1;dropTarget=0;whiteSpace=wrap;" vertex="1" parent="1">
          <mxGeometry x="720" y="720" width="180" height="90" as="geometry" />
        </mxCell>
        <mxCell id="LYflKzHuiO3MuXT4zeJ_-12" value="" style="shape=module;jettyWidth=8;jettyHeight=4;" vertex="1" parent="LYflKzHuiO3MuXT4zeJ_-11">
          <mxGeometry x="1" width="20" height="20" relative="1" as="geometry">
            <mxPoint x="-27" y="7" as="offset" />
          </mxGeometry>
        </mxCell>
        <mxCell id="LYflKzHuiO3MuXT4zeJ_-13" value="&lt;b&gt;SMTP Server&lt;/b&gt;" style="html=1;dropTarget=0;whiteSpace=wrap;" vertex="1" parent="1">
          <mxGeometry x="720" y="560" width="180" height="90" as="geometry" />
        </mxCell>
        <mxCell id="LYflKzHuiO3MuXT4zeJ_-14" value="" style="shape=module;jettyWidth=8;jettyHeight=4;" vertex="1" parent="LYflKzHuiO3MuXT4zeJ_-13">
          <mxGeometry x="1" width="20" height="20" relative="1" as="geometry">
            <mxPoint x="-27" y="7" as="offset" />
          </mxGeometry>
        </mxCell>
        <mxCell id="LYflKzHuiO3MuXT4zeJ_-15" value="&lt;b&gt;Relational Database&lt;/b&gt;" style="html=1;dropTarget=0;whiteSpace=wrap;" vertex="1" parent="1">
          <mxGeometry x="720" y="1040" width="180" height="90" as="geometry" />
        </mxCell>
        <mxCell id="LYflKzHuiO3MuXT4zeJ_-16" value="" style="shape=module;jettyWidth=8;jettyHeight=4;" vertex="1" parent="LYflKzHuiO3MuXT4zeJ_-15">
          <mxGeometry x="1" width="20" height="20" relative="1" as="geometry">
            <mxPoint x="-27" y="7" as="offset" />
          </mxGeometry>
        </mxCell>
        <mxCell id="LYflKzHuiO3MuXT4zeJ_-17" value="&lt;b&gt;SMTP Server&lt;/b&gt;" style="html=1;dropTarget=0;whiteSpace=wrap;" vertex="1" parent="1">
          <mxGeometry x="720" y="880" width="180" height="90" as="geometry" />
        </mxCell>
        <mxCell id="LYflKzHuiO3MuXT4zeJ_-18" value="" style="shape=module;jettyWidth=8;jettyHeight=4;" vertex="1" parent="LYflKzHuiO3MuXT4zeJ_-17">
          <mxGeometry x="1" width="20" height="20" relative="1" as="geometry">
            <mxPoint x="-27" y="7" as="offset" />
          </mxGeometry>
        </mxCell>
        <mxCell id="LYflKzHuiO3MuXT4zeJ_-19" value="&lt;b&gt;Relational Database&lt;/b&gt;" style="html=1;dropTarget=0;whiteSpace=wrap;" vertex="1" parent="1">
          <mxGeometry x="720" y="1360" width="180" height="90" as="geometry" />
        </mxCell>
        <mxCell id="LYflKzHuiO3MuXT4zeJ_-20" value="" style="shape=module;jettyWidth=8;jettyHeight=4;" vertex="1" parent="LYflKzHuiO3MuXT4zeJ_-19">
          <mxGeometry x="1" width="20" height="20" relative="1" as="geometry">
            <mxPoint x="-27" y="7" as="offset" />
          </mxGeometry>
        </mxCell>
        <mxCell id="LYflKzHuiO3MuXT4zeJ_-21" value="&lt;b&gt;SMTP Server&lt;/b&gt;" style="html=1;dropTarget=0;whiteSpace=wrap;" vertex="1" parent="1">
          <mxGeometry x="720" y="1200" width="180" height="90" as="geometry" />
        </mxCell>
        <mxCell id="LYflKzHuiO3MuXT4zeJ_-22" value="" style="shape=module;jettyWidth=8;jettyHeight=4;" vertex="1" parent="LYflKzHuiO3MuXT4zeJ_-21">
          <mxGeometry x="1" width="20" height="20" relative="1" as="geometry">
            <mxPoint x="-27" y="7" as="offset" />
          </mxGeometry>
        </mxCell>
        <mxCell id="LYflKzHuiO3MuXT4zeJ_-23" value="&lt;b&gt;Relational Database&lt;/b&gt;" style="html=1;dropTarget=0;whiteSpace=wrap;" vertex="1" parent="1">
          <mxGeometry x="720" y="1680" width="180" height="90" as="geometry" />
        </mxCell>
        <mxCell id="LYflKzHuiO3MuXT4zeJ_-24" value="" style="shape=module;jettyWidth=8;jettyHeight=4;" vertex="1" parent="LYflKzHuiO3MuXT4zeJ_-23">
          <mxGeometry x="1" width="20" height="20" relative="1" as="geometry">
            <mxPoint x="-27" y="7" as="offset" />
          </mxGeometry>
        </mxCell>
        <mxCell id="LYflKzHuiO3MuXT4zeJ_-25" value="&lt;b&gt;SMTP Server&lt;/b&gt;" style="html=1;dropTarget=0;whiteSpace=wrap;" vertex="1" parent="1">
          <mxGeometry x="720" y="1520" width="180" height="90" as="geometry" />
        </mxCell>
        <mxCell id="LYflKzHuiO3MuXT4zeJ_-26" value="" style="shape=module;jettyWidth=8;jettyHeight=4;" vertex="1" parent="LYflKzHuiO3MuXT4zeJ_-25">
          <mxGeometry x="1" width="20" height="20" relative="1" as="geometry">
            <mxPoint x="-27" y="7" as="offset" />
          </mxGeometry>
        </mxCell>
        <mxCell id="LYflKzHuiO3MuXT4zeJ_-42" value="" style="shape=waypoint;sketch=0;size=6;pointerEvents=1;points=[];fillColor=none;resizable=0;rotatable=0;perimeter=centerPerimeter;snapToPoint=1;strokeColor=none;" vertex="1" parent="1">
          <mxGeometry x="990" y="355" width="20" height="20" as="geometry" />
        </mxCell>
        <mxCell id="LYflKzHuiO3MuXT4zeJ_-44" value="" style="shape=waypoint;sketch=0;size=6;pointerEvents=1;points=[];fillColor=none;resizable=0;rotatable=0;perimeter=centerPerimeter;snapToPoint=1;strokeColor=none;" vertex="1" parent="1">
          <mxGeometry x="990" y="675" width="20" height="20" as="geometry" />
        </mxCell>
        <mxCell id="LYflKzHuiO3MuXT4zeJ_-45" style="edgeStyle=orthogonalEdgeStyle;rounded=0;orthogonalLoop=1;jettySize=auto;html=1;entryX=0.293;entryY=0.507;entryDx=0;entryDy=0;entryPerimeter=0;dashed=1;strokeColor=default;align=center;verticalAlign=middle;fontFamily=Helvetica;fontSize=11;fontColor=default;labelBackgroundColor=default;endArrow=open;endSize=12;" edge="1" parent="1" source="uvWE7Oe1ghTMDL82STBi-7" target="LYflKzHuiO3MuXT4zeJ_-44">
          <mxGeometry relative="1" as="geometry" />
        </mxCell>
        <mxCell id="LYflKzHuiO3MuXT4zeJ_-46" value="" style="shape=waypoint;sketch=0;size=6;pointerEvents=1;points=[];fillColor=none;resizable=0;rotatable=0;perimeter=centerPerimeter;snapToPoint=1;strokeColor=none;" vertex="1" parent="1">
          <mxGeometry x="990" y="995" width="20" height="20" as="geometry" />
        </mxCell>
        <mxCell id="LYflKzHuiO3MuXT4zeJ_-48" value="" style="shape=waypoint;sketch=0;size=6;pointerEvents=1;points=[];fillColor=none;resizable=0;rotatable=0;perimeter=centerPerimeter;snapToPoint=1;strokeColor=none;" vertex="1" parent="1">
          <mxGeometry x="990" y="1315" width="20" height="20" as="geometry" />
        </mxCell>
        <mxCell id="LYflKzHuiO3MuXT4zeJ_-49" value="" style="shape=waypoint;sketch=0;size=6;pointerEvents=1;points=[];fillColor=none;resizable=0;rotatable=0;perimeter=centerPerimeter;snapToPoint=1;strokeColor=none;" vertex="1" parent="1">
          <mxGeometry x="990" y="1635" width="20" height="20" as="geometry" />
        </mxCell>
        <mxCell id="LYflKzHuiO3MuXT4zeJ_-50" style="edgeStyle=orthogonalEdgeStyle;rounded=0;orthogonalLoop=1;jettySize=auto;html=1;entryX=0.554;entryY=0.767;entryDx=0;entryDy=0;entryPerimeter=0;dashed=1;strokeColor=default;align=center;verticalAlign=middle;fontFamily=Helvetica;fontSize=11;fontColor=default;labelBackgroundColor=default;endArrow=open;endSize=12;" edge="1" parent="1" source="uvWE7Oe1ghTMDL82STBi-12" target="LYflKzHuiO3MuXT4zeJ_-46">
          <mxGeometry relative="1" as="geometry" />
        </mxCell>
        <mxCell id="LYflKzHuiO3MuXT4zeJ_-51" style="edgeStyle=orthogonalEdgeStyle;rounded=0;orthogonalLoop=1;jettySize=auto;html=1;entryX=0.641;entryY=0.159;entryDx=0;entryDy=0;entryPerimeter=0;dashed=1;strokeColor=default;align=center;verticalAlign=middle;fontFamily=Helvetica;fontSize=11;fontColor=default;labelBackgroundColor=default;endArrow=open;endSize=12;" edge="1" parent="1" source="n6vh8ZUvpWAjUFo_drXO-1" target="LYflKzHuiO3MuXT4zeJ_-48">
          <mxGeometry relative="1" as="geometry" />
        </mxCell>
        <mxCell id="LYflKzHuiO3MuXT4zeJ_-52" style="edgeStyle=orthogonalEdgeStyle;rounded=0;orthogonalLoop=1;jettySize=auto;html=1;entryX=0.033;entryY=0.159;entryDx=0;entryDy=0;entryPerimeter=0;dashed=1;strokeColor=default;align=center;verticalAlign=middle;fontFamily=Helvetica;fontSize=11;fontColor=default;labelBackgroundColor=default;endArrow=open;endSize=12;" edge="1" parent="1" source="n6vh8ZUvpWAjUFo_drXO-6" target="LYflKzHuiO3MuXT4zeJ_-49">
          <mxGeometry relative="1" as="geometry" />
        </mxCell>
        <mxCell id="LYflKzHuiO3MuXT4zeJ_-57" value="" style="shape=waypoint;sketch=0;size=6;pointerEvents=1;points=[];fillColor=none;resizable=0;rotatable=0;perimeter=centerPerimeter;snapToPoint=1;strokeColor=none;" vertex="1" parent="1">
          <mxGeometry x="990" y="2220" width="20" height="20" as="geometry" />
        </mxCell>
        <mxCell id="LYflKzHuiO3MuXT4zeJ_-58" style="edgeStyle=orthogonalEdgeStyle;rounded=0;orthogonalLoop=1;jettySize=auto;html=1;entryX=0.7;entryY=0.762;entryDx=0;entryDy=0;entryPerimeter=0;dashed=1;strokeColor=default;align=center;verticalAlign=middle;fontFamily=Helvetica;fontSize=11;fontColor=default;labelBackgroundColor=default;endArrow=open;endSize=12;" edge="1" parent="1" source="n6vh8ZUvpWAjUFo_drXO-29" target="LYflKzHuiO3MuXT4zeJ_-57">
          <mxGeometry relative="1" as="geometry">
            <Array as="points">
              <mxPoint x="670" y="2015" />
              <mxPoint x="670" y="2230" />
            </Array>
          </mxGeometry>
        </mxCell>
      </root>
    </mxGraphModel>
  </diagram>
</mxfile>
